HIERARCHY
ROOT Hips
{
  OFFSET 0.000000 0.000000 0.000000
  CHANNELS 6 Xposition Yposition Zposition Zrotation Xrotation Yrotation
  JOINT Spine1
  {
    OFFSET 0.000000 0.000000 0.000000
    CHANNELS 3 Zrotation Xrotation Yrotation
    JOINT Spine2
    {
      OFFSET -0.000000 4.400000 -0.396350
      CHANNELS 3 Zrotation Xrotation Yrotation
      JOINT Chest
      {
        OFFSET 0.000000 0.000000 0.000000
        CHANNELS 3 Zrotation Xrotation Yrotation
        JOINT LeftShoulder
        {
          OFFSET 10.022000 24.778000 0.395630
          CHANNELS 3 Zrotation Xrotation Yrotation
          JOINT LeftArm
          {
            OFFSET 4.424000 -11.703100 -0.000000
            CHANNELS 3 Zrotation Xrotation Yrotation
            JOINT LeftForeArm
            {
              OFFSET 0.000000 -8.051800 1.578300
              CHANNELS 3 Zrotation Xrotation Yrotation
              JOINT LeftHand
              {
                OFFSET 0.188791 -1.000000 18.400000
                CHANNELS 3 Zrotation Xrotation Yrotation
                End Site
                {
                  OFFSET 0 0 1
                }
              }
            }
          }
        }
        JOINT RightShoulder
        {
          OFFSET -10.021000 24.778000 0.395630
          CHANNELS 3 Zrotation Xrotation Yrotation
          JOINT RightArm
          {
            OFFSET -4.424000 -11.703100 -0.000000
            CHANNELS 3 Zrotation Xrotation Yrotation
            JOINT RightForeArm
            {
              OFFSET 0.000000 -8.051800 1.578300
              CHANNELS 3 Zrotation Xrotation Yrotation
              JOINT RightHand
              {
                OFFSET -0.188791 -1.000000 18.400000
                CHANNELS 3 Zrotation Xrotation Yrotation
                End Site
                {
                  OFFSET 0 0 1
                }
              }
            }
          }
        }
      }
    }
  }
  JOINT LeftLeg
  {
    OFFSET 11.645200 -25.728500 2.500100
    CHANNELS 3 Zrotation Xrotation Yrotation
    JOINT LeftShin
    {
      OFFSET 0.214890 -17.734000 -7.827300
      CHANNELS 3 Zrotation Xrotation Yrotation
      JOINT LeftFoot
      {
        OFFSET -0.009445 -31.756800 -0.000000
        CHANNELS 3 Zrotation Xrotation Yrotation
        JOINT LeftToeBase
        {
          OFFSET 0.000000 -3.500000 14.000000
          CHANNELS 3 Zrotation Xrotation Yrotation
          End Site
          {
            OFFSET 0 0 1
          }
        }
      }
    }
  }
  JOINT RightLeg
  {
    OFFSET -11.645200 -25.728500 2.500100
    CHANNELS 3 Zrotation Xrotation Yrotation
    JOINT RightShin
    {
      OFFSET -0.214890 -17.734000 -7.827300
      CHANNELS 3 Zrotation Xrotation Yrotation
      JOINT RightFoot
      {
        OFFSET 0.009444 -31.756800 -0.000000
        CHANNELS 3 Zrotation Xrotation Yrotation
        JOINT RightToeBase
        {
          OFFSET 0.000000 -3.500000 14.000000
          CHANNELS 3 Zrotation Xrotation Yrotation
          End Site
          {
            OFFSET 0 0 1
          }
        }
      }
    }
  }
}
MOTION
Frames: 18
Frame Time: 0.033333333
0.000000 77.960152 0.000000 0.135850 -2.728521 0.000002 -0.000000 0.000000 -0.801741 0.437936 0.000000 -0.000000 -0.000000 8.786698 -0.000000 16.002568 -3.322972 -0.011439 -1.211473 -0.000000 -25.605391 -0.000002 68.000686 0.000002 4.891295 -2.312186 -1.858894 -16.003206 -0.121218 0.011420 2.928519 -0.000000 23.865748 0.000003 72.167682 -0.000004 -7.983105 1.406575 -6.767304 0.271313 -2.930985 15.400137 0.000000 9.787127 -0.000000 0.633891 -4.369831 0.048300 0.476245 0.148124 -15.341941 -0.653561 -3.499802 -16.145444 0.000000 10.427036 -0.000001 -0.500462 -6.162426 -0.053724 -0.735104 1.862788 16.122556
0.011912 77.959846 0.029049 0.114260 -2.777465 0.011435 -0.000000 0.000000 -0.999832 0.433468 0.000000 0.000000 -0.000000 8.789679 -0.000000 16.002484 -3.743458 -0.011444 -1.559933 -0.000000 -25.446763 -0.000002 68.598537 0.000001 5.228729 -2.810596 -0.988960 -16.003131 -0.505860 0.011420 3.243957 -0.000000 23.212135 -0.000001 72.464442 -0.000000 -7.851995 1.699387 -8.409704 0.255920 -2.753125 15.384773 -0.000000 9.564869 0.000000 0.603548 -4.261656 0.044852 0.507080 0.128217 -15.340636 -0.590254 -3.295595 -16.078576 -0.000000 10.154553 0.000001 -0.532857 -6.026547 -0.055946 -0.692368 1.840250 16.046082
0.026183 77.965973 0.074422 0.091624 -2.815930 0.011105 0.000000 0.000000 -1.166593 0.421828 0.000000 -0.000000 0.000000 8.737789 0.000000 16.002497 -3.679039 -0.011443 -1.568384 0.000000 -25.406565 0.000003 68.556241 -0.000003 5.415544 -3.060844 -0.474333 -16.003152 -0.404964 0.011420 3.181802 0.000000 22.811292 -0.000000 72.153971 0.000000 -7.522003 1.980429 -8.905123 0.273456 -2.690307 15.369942 -0.000000 9.598849 -0.000001 0.585984 -4.286061 0.043797 0.521724 0.094073 -15.326545 -0.549438 -3.135113 -16.090396 0.000000 9.973505 -0.000000 -0.537133 -5.935093 -0.055543 -0.673040 1.807285 16.058974
0.032404 77.973221 0.115515 0.074267 -2.893576 -0.008275 -0.000000 -0.000000 -1.258690 0.403607 -0.000000 -0.000000 -0.000000 8.753966 0.000000 16.002497 -3.673983 -0.011443 -1.545104 -0.000000 -25.472601 -0.000002 68.541375 0.000001 5.523158 -3.182780 -0.172927 -16.003147 -0.427420 0.011420 3.107787 -0.000000 22.828176 0.000001 71.994408 -0.000002 -7.484689 2.208970 -8.561183 0.285731 -2.580680 15.360626 -0.000000 9.638490 0.000000 0.615907 -4.331863 0.046523 0.486606 0.068468 -15.299219 -0.516325 -2.941795 -16.082898 0.000000 9.815386 -0.000001 -0.559566 -5.816487 -0.056709 -0.633966 1.731147 16.071163
0.043695 77.975830 0.152147 0.057295 -2.981015 -0.022487 0.000000 -0.000000 -1.218418 0.398507 0.000000 -0.000000 0.000000 8.805807 0.000000 16.002483 -3.752180 -0.011444 -1.508662 -0.000000 -25.577933 -0.000006 68.566863 0.000006 5.600912 -3.245482 -0.046191 -16.003125 -0.537676 0.011420 3.025751 -0.000000 23.235394 -0.000002 72.058105 0.000002 -7.805240 2.502753 -7.819068 0.300656 -2.463229 15.359747 -0.000000 9.676657 0.000001 0.600232 -4.349081 0.045519 0.495541 0.018216 -15.285144 -0.487408 -2.758256 -16.094368 0.000000 9.693303 -0.000000 -0.587654 -5.768454 -0.059066 -0.592790 1.709096 16.097912
0.054457 77.976097 0.190482 0.049355 -3.091179 -0.033241 -0.000000 -0.000000 -1.157295 0.407656 -0.000000 0.000000 -0.000000 8.891074 0.000000 16.002459 -3.867487 -0.011446 -1.487572 0.000000 -25.739549 0.000000 68.590814 -0.000001 5.679535 -3.267366 -0.006021 -16.003101 -0.649850 0.011421 2.981940 -0.000000 23.717146 -0.000002 72.196576 0.000002 -8.020037 2.717868 -7.118514 0.294621 -2.283492 15.368493 0.000000 9.634897 -0.000001 0.619038 -4.363781 0.047104 0.472153 0.003874 -15.284869 -0.481051 -2.571526 -16.130689 -0.000000 9.628081 -0.000000 -0.580308 -5.745433 -0.058094 -0.581558 1.677219 16.146268
0.071653 77.973099 0.231755 0.034445 -3.192592 -0.050673 0.000000 -0.000000 -1.108290 0.435801 0.000000 -0.000000 0.000000 8.929326 -0.000000 16.002443 -3.939757 -0.011447 -1.479869 0.000000 -25.779690 0.000004 68.598121 -0.000005 5.753264 -3.280956 0.013013 -16.003104 -0.628757 0.011421 2.970526 0.000000 23.918840 0.000001 72.219411 -0.000001 -8.034936 2.768285 -6.594503 0.286992 -2.081159 15.383181 -0.000000 9.545628 -0.000000 0.636037 -4.369236 0.048457 0.450657 -0.004710 -15.284573 -0.464381 -2.397058 -16.085691 -0.000000 9.582014 0.000000 -0.582432 -5.703639 -0.057885 -0.557548 1.611412 16.118815
0.087063 77.969315 0.276834 0.036931 -3.302747 -0.065182 -0.000000 0.000000 -1.091822 0.453496 -0.000000 -0.000000 -0.000000 8.944934 -0.000000 16.002441 -3.955494 -0.011447 -1.497332 -0.000000 -25.739628 0.000001 68.566301 -0.000001 5.791197 -3.291492 0.041810 -16.003130 -0.509512 0.011420 2.980317 0.000000 23.922522 -0.000003 72.127204 0.000003 -7.865903 2.657230 -6.203489 0.256385 -1.884074 15.382352 -0.000000 9.472025 0.000001 0.601690 -4.367285 0.045821 0.488060 -0.024120 -15.269885 -0.473718 -2.224336 -16.035346 0.000000 9.549532 0.000001 -0.563956 -5.757138 -0.056573 -0.548341 1.639819 16.085985
0.108597 78.070656 0.318940 0.302438 -3.632607 -0.027975 0.000000 0.000000 -0.938915 0.445893 0.000000 -0.000000 -0.000000 9.063451 -0.000000 16.002416 -4.076317 -0.011449 -1.775299 -0.000000 -25.669473 0.000003 68.886430 -0.000003 5.786550 -3.704283 -0.848517 -16.003166 -0.325006 0.011420 3.095630 0.000000 23.982375 -0.000003 71.531761 0.000003 -6.853650 2.695422 -6.271112 -0.127618 -2.168880 14.854988 0.000000 9.629098 -0.000000 0.874114 -4.372171 0.066643 0.442393 0.397281 -14.754252 -0.614884 -2.058539 -15.676345 -0.000000 9.805845 0.000001 -0.539219 -5.933349 -0.055742 -0.701554 1.691246 15.704253
0.111007 78.106865 0.461748 0.249987 -3.416510 -0.283657 0.000000 0.000000 -1.051168 0.440782 0.000000 0.000000 -0.000000 9.151457 -0.000000 16.002380 -4.258380 -0.011451 -1.936244 0.000000 -25.672085 -0.000001 68.907488 0.000001 5.617542 -4.027217 -1.050414 -16.003130 -0.498791 0.011420 3.378275 -0.000000 23.787868 -0.000003 72.003399 0.000003 -5.985760 2.512153 -6.371282 -0.235268 -2.184286 14.644301 0.000000 9.861882 0.000000 1.122227 -4.392836 0.085967 0.263602 -0.041451 -14.279038 -0.708980 -2.078841 -15.378626 -0.000000 9.986250 0.000001 -0.381560 -6.057147 -0.040263 -0.650679 1.485774 15.660878
0.128310 78.123627 0.896445 0.253937 -3.204190 -0.568534 -0.000000 -0.000000 -0.814067 0.361161 0.000000 -0.000000 0.000000 9.243263 -0.000000 16.002484 -3.743026 -0.011444 -1.807855 0.000000 -25.772785 -0.000002 68.359627 0.000002 5.223591 -3.497841 -0.881855 -16.003090 -0.707754 0.011421 3.401293 -0.000000 23.546396 0.000002 71.374110 -0.000002 -5.191667 2.721268 -6.324566 -0.515666 -2.366590 14.533601 -0.000000 10.061370 0.000000 1.409125 -4.864060 0.119507 0.213086 0.137808 -13.876855 -0.759788 -1.902783 -15.228944 0.000000 9.959011 -0.000000 0.051676 -6.441712 0.005799 -0.934392 1.532317 15.802638
0.160664 78.144028 1.726002 0.265433 -2.945151 -0.628964 0.000000 -0.000000 -0.599232 0.252449 -0.000000 0.000000 -0.000000 9.135937 0.000000 16.002622 -3.063873 -0.011436 -1.601712 -0.000000 -26.326161 -0.000001 67.774731 0.000001 5.405771 -3.471044 -0.858605 -16.003188 -0.213149 0.011420 3.522478 -0.000000 23.742555 -0.000001 70.626309 0.000001 -4.955199 3.017024 -6.595804 -0.951251 -2.571294 14.262747 -0.000000 10.239218 0.000000 1.955284 -5.669768 0.193246 0.043120 0.617927 -13.548601 -0.671034 -1.600049 -14.740742 -0.000000 9.599744 -0.000000 0.088853 -6.846960 0.010594 -0.882944 1.734783 15.381489
0.276304 78.223045 3.380269 0.250853 -2.496871 -0.634838 -0.000000 -0.000000 -0.043444 0.068401 -0.000000 0.000000 -0.000000 8.934225 0.000000 16.002894 -1.690412 -0.011425 -1.514217 0.000000 -27.711677 -0.000001 66.557501 0.000001 4.698645 -2.862725 -0.583925 -16.003309 0.388642 0.011420 3.511658 0.000000 24.249136 -0.000001 68.853772 0.000000 -4.453870 3.302506 -7.329630 -1.662015 -3.221473 13.342529 0.000000 11.080391 -0.000000 2.807224 -7.445316 0.364046 -0.120456 1.617097 -12.658204 -0.611958 -1.292643 -13.621065 -0.000000 9.188082 0.000000 0.597864 -7.805449 0.081199 -1.160379 2.376299 14.275862
0.513546 78.202560 4.447899 0.328802 -2.006518 -0.665292 -0.000000 0.000000 -0.091052 0.001236 0.000000 -0.000000 -0.000000 8.628914 -0.000000 16.003006 -1.131930 -0.011422 -1.561717 0.000000 -28.855392 0.000000 65.982213 -0.000001 3.967923 -2.297291 -0.053452 -16.003352 0.607009 0.011420 3.255048 0.000000 25.069866 0.000003 67.694386 -0.000003 -4.577541 2.917911 -7.340999 -2.068366 -3.484006 12.981221 0.000000 11.940740 0.000000 3.126161 -8.541256 0.464753 -0.187950 1.575042 -12.280266 -0.866516 -1.287814 -13.069241 -0.000000 9.409893 -0.000000 0.930883 -8.738087 0.141430 -1.163363 2.650708 13.753861
0.895571 78.138695 5.490430 0.563119 -1.548233 -0.825860 0.000000 -0.000000 -0.139082 -0.179726 -0.000000 0.000000 -0.000000 8.481549 0.000000 16.003080 -0.753515 -0.011421 -1.591279 -0.000000 -29.945819 -0.000000 65.702634 -0.000000 3.502323 -1.716734 0.330578 -16.003328 0.488030 0.011420 2.648770 0.000000 26.207886 0.000001 66.907285 -0.000001 -4.367654 2.979509 -7.406913 -2.803364 -3.980391 12.630884 0.000000 13.058363 0.000000 3.572453 -9.796017 0.608587 -0.149564 1.658714 -11.790161 -1.683937 -1.609194 -12.564252 0.000000 10.987554 -0.000000 1.198615 -10.498429 0.218429 -0.791098 2.825631 13.397015
1.373383 78.007973 6.475143 0.928086 -1.203626 -1.037060 0.000000 -0.000000 -0.142057 -0.615987 0.000000 0.000000 0.000000 8.664988 0.000000 16.003142 -0.441174 -0.011420 -1.759935 0.000000 -30.732075 0.000003 65.461759 -0.000002 3.321970 -1.427500 0.232735 -16.003214 -0.083661 0.011420 2.052818 0.000000 27.156761 0.000000 66.299697 0.000000 -4.238812 2.998473 -7.006008 -3.573423 -4.322254 12.607573 -0.000000 13.960837 0.000000 4.010430 -10.935471 0.761992 -0.174560 1.803798 -11.583504 -3.099569 -2.654282 -12.011639 0.000000 15.528507 0.000000 1.412572 -13.728653 0.335301 -0.067618 2.407580 13.033761
1.908784 77.681709 7.384494 2.131097 -1.542442 -1.236243 -0.000000 -0.000000 -0.063136 -1.566540 -0.000000 -0.000000 -0.000000 9.318148 0.000000 16.003290 0.288785 -0.011420 -1.924549 0.000000 -31.193502 0.000003 65.679124 -0.000003 3.290008 -2.495159 -0.809610 -16.003093 -0.686548 0.011421 1.788280 -0.000000 27.628434 -0.000001 65.339904 0.000001 -3.522993 3.416182 -7.465922 -5.513258 -5.040867 12.341073 0.000000 14.484239 0.000000 5.120107 -11.463778 1.020223 -0.347033 2.690923 -11.140065 -5.757488 -6.057435 -11.939678 0.000000 26.354346 -0.000000 2.306210 -19.626239 0.774988 -0.215024 1.416378 13.180162
2.471656 77.204880 8.363322 2.780487 -1.842654 -1.056413 0.000000 0.000000 -0.359898 -2.555799 0.000000 -0.000000 0.000000 10.215728 -0.000000 16.003374 0.712304 -0.011421 -1.450758 0.000000 -31.546403 0.000002 65.674499 -0.000001 3.290610 -2.773541 -1.297517 -16.002951 -1.399498 0.011423 1.604001 0.000000 27.478275 -0.000002 65.003426 0.000001 -3.477163 3.344582 -7.626722 -7.112906 -4.579904 12.512527 -0.000000 15.044319 -0.000000 5.865562 -12.425406 1.266304 -0.148894 2.726442 -11.480633 -8.623984 -9.953930 -12.056810 0.000000 37.281402 -0.000000 2.552752 -23.343895 1.012090 0.901709 -1.226701 13.216225
